<?xml version="1.0" encoding="utf-8"?>
<!-- Generator: Adobe Illustrator 21.0.0, SVG Export Plug-In . SVG Version: 6.00 Build 0)  -->
<svg version="1.1" id="Layer_1" xmlns="http://www.w3.org/2000/svg" xmlns:xlink="http://www.w3.org/1999/xlink" x="0px" y="0px"
	 viewBox="0 0 800 1280" style="enable-background:new 0 0 800 1280;" xml:space="preserve">
<style type="text/css">
	.st0{fill:url(#_Path__1_);}
	.st1{fill:url(#_Path_2_1_);}
	.st2{fill:url(#_Path_3_1_);}
	.st3{fill:url(#_Path_4_1_);}
	.st4{fill:url(#_Path_5_1_);}
	.st5{fill:url(#_Path_6_1_);}
	.st6{fill:url(#_Path_7_1_);}
	.st7{fill:url(#_Path_8_1_);}
	.st8{fill:url(#_Path_9_1_);}
	.st9{fill:url(#_Path_10_1_);}
	.st10{fill:url(#_Path_11_1_);}
	.st11{fill:url(#_Path_12_1_);}
	.st12{fill:#4D4D4D;}
	.st13{fill:#E5E5E5;}
	.st14{fill:#FFFFFF;}
	.st15{opacity:0.3;enable-background:new    ;}
	.st16{fill:#FFCB00;}
	.st17{fill:#BE8700;}
	.st18{fill:#CBCBCB;}
	.st19{fill:url(#_Path_23_1_);}
	.st20{fill:url(#_Path_24_1_);}
	.st21{fill:url(#_Path_25_1_);}
	.st22{fill:url(#_Path_26_1_);}
	.st23{fill:url(#_Path_27_1_);}
	.st24{fill:url(#_Path_28_1_);}
	.st25{fill:url(#_Path_29_1_);}
	.st26{fill:url(#_Path_30_1_);}
	.st27{fill:url(#_Path_31_1_);}
	.st28{fill:url(#_Path_32_1_);}
</style>
<title>Databites-Avatar</title>
<g id="ART">
	<g id="_Group_">
		<g id="_Group_2">
			
				<linearGradient id="_Path__1_" gradientUnits="userSpaceOnUse" x1="30.5891" y1="-811.7782" x2="30.5891" y2="-619.5062" gradientTransform="matrix(1 0 0 1 0 1274)">
				<stop  offset="0" style="stop-color:#2991CB"/>
				<stop  offset="1" style="stop-color:#3574CB"/>
			</linearGradient>
			<path id="_Path_" class="st0" d="M-30.5,654.5c8.1-61.6,23.6-129.5,51.8-192.3l70.4,57.4l-5.1,73.1L-30.5,654.5z"/>
			
				<linearGradient id="_Path_2_1_" gradientUnits="userSpaceOnUse" x1="773.7234" y1="-811.7782" x2="773.7234" y2="-619.5062" gradientTransform="matrix(1 0 0 1 0 1274)">
				<stop  offset="0" style="stop-color:#2894CB"/>
				<stop  offset="1" style="stop-color:#3573CB"/>
			</linearGradient>
			<path id="_Path_2" class="st1" d="M712.6,519.6l5.1,73.1l117,61.8c-8.1-61.6-23.6-129.5-51.8-192.3L712.6,519.6z"/>
			
				<linearGradient id="_Path_3_1_" gradientUnits="userSpaceOnUse" x1="41.2766" y1="-681.2952" x2="41.2766" y2="-414.8525" gradientTransform="matrix(1 0 0 1 0 1274)">
				<stop  offset="0" style="stop-color:#52A2FF"/>
				<stop  offset="1" style="stop-color:#6F76E2"/>
			</linearGradient>
			<path id="_Path_3" class="st2" d="M-36.3,859.1c0,0-9.2-91.3,5.7-203.8c0-0.2,0-0.5,0.1-0.8c37.3-23.8,76.4-44.4,117-61.8
				l35.1,116.7L-36.3,859.1z"/>
			
				<linearGradient id="_Path_4_1_" gradientUnits="userSpaceOnUse" x1="66.841" y1="-564.3842" x2="66.841" y2="-414.8525" gradientTransform="matrix(1 0 0 1 0 1274)">
				<stop  offset="0" style="stop-color:#2E4D93"/>
				<stop  offset="1" style="stop-color:#3B3B84"/>
			</linearGradient>
			<path id="_Path_4" class="st3" d="M69.6,859.1h-106c0,0,87.6-100.7,158-149.5l48.3,27.1L69.6,859.1z"/>
			
				<linearGradient id="_Path_5_1_" gradientUnits="userSpaceOnUse" x1="148.5715" y1="-537.2399" x2="148.5715" y2="-273.1784" gradientTransform="matrix(1 0 0 1 0 1274)">
				<stop  offset="0" style="stop-color:#7394F4"/>
				<stop  offset="1" style="stop-color:#926BCF"/>
			</linearGradient>
			<path id="_Path_5" class="st4" d="M108.7,1000.8c0,0-31.3-74.6-39-141.7c0,0,46.2-66.7,100.4-122.4l57.5,13.9L108.7,1000.8z"/>
			
				<linearGradient id="_Path_6_1_" gradientUnits="userSpaceOnUse" x1="217.5037" y1="-543.6689" x2="217.5037" y2="-273.2975" gradientTransform="matrix(1 0 0 1 0 1274)">
				<stop  offset="0" style="stop-color:#304A90"/>
				<stop  offset="1" style="stop-color:#482B76"/>
			</linearGradient>
			<path id="_Path_6" class="st5" d="M236.8,962.5l-128,38.2c0,0,71.7-175.6,118.7-250l98.7-20.4L236.8,962.5z"/>
			
				<linearGradient id="_Path_7_1_" gradientUnits="userSpaceOnUse" x1="325.307" y1="-543.6689" x2="325.307" y2="-91.3831" gradientTransform="matrix(1 0 0 1 0 1274)">
				<stop  offset="0" style="stop-color:#7394F4"/>
				<stop  offset="1" style="stop-color:#A94DB4"/>
			</linearGradient>
			<path id="_Path_7" class="st6" d="M402.2,832.4l11.7,131.8l-11.7,218.5c-2.9-2.6-93.7-86.3-165.4-220.1
				c0,0,39.6-148.2,89.4-232.2L402.2,832.4z"/>
			
				<linearGradient id="_Path_8_1_" gradientUnits="userSpaceOnUse" x1="763.0359" y1="-681.4142" x2="763.0359" y2="-414.9716" gradientTransform="matrix(1 0 0 1 0 1274)">
				<stop  offset="0" style="stop-color:#255C98"/>
				<stop  offset="1" style="stop-color:#3A3D85"/>
			</linearGradient>
			<path id="_Path_8" class="st7" d="M682.6,709.5l158,149.5c0,0,9.2-91.3-5.7-203.8c0-0.2,0-0.5-0.1-0.8
				c-37.3-23.8-76.4-44.4-117-61.8L682.6,709.5z"/>
			
				<linearGradient id="_Path_9_1_" gradientUnits="userSpaceOnUse" x1="737.4716" y1="-564.3842" x2="737.4716" y2="-414.8525" gradientTransform="matrix(1 0 0 1 0 1274)">
				<stop  offset="0" style="stop-color:#5E8CF6"/>
				<stop  offset="1" style="stop-color:#7174E0"/>
			</linearGradient>
			<path id="_Path_9" class="st8" d="M734.7,859.1h106c0,0-87.6-100.7-158-149.5l-48.3,27.1L734.7,859.1z"/>
			
				<linearGradient id="_Path_10_1_" gradientUnits="userSpaceOnUse" x1="655.741" y1="-537.2399" x2="655.741" y2="-273.1784" gradientTransform="matrix(1 0 0 1 0 1274)">
				<stop  offset="0" style="stop-color:#304A90"/>
				<stop  offset="1" style="stop-color:#482B76"/>
			</linearGradient>
			<path id="_Path_10" class="st9" d="M695.6,1000.8c0,0,31.3-74.6,39-141.7c0,0-46.2-66.7-100.4-122.4l-57.5,13.9L695.6,1000.8z"/>
			
				<linearGradient id="_Path_11_1_" gradientUnits="userSpaceOnUse" x1="586.8089" y1="-543.6689" x2="586.8089" y2="-273.2975" gradientTransform="matrix(1 0 0 1 0 1274)">
				<stop  offset="0" style="stop-color:#7394F4"/>
				<stop  offset="1" style="stop-color:#926BCF"/>
			</linearGradient>
			<path id="_Path_11" class="st10" d="M567.5,962.5l128,38.2c0,0-71.7-175.6-118.7-250l-98.7-20.4L567.5,962.5z"/>
			
				<linearGradient id="_Path_12_1_" gradientUnits="userSpaceOnUse" x1="484.8392" y1="-543.5499" x2="484.8392" y2="-91.2641" gradientTransform="matrix(1 0 0 1 0 1274)">
				<stop  offset="0" style="stop-color:#2F4A90"/>
				<stop  offset="1" style="stop-color:#591462"/>
			</linearGradient>
			<path id="_Path_12" class="st11" d="M402.2,832.4v350.4c2.9-2.6,93.7-86.3,165.4-220.1c0,0-39.6-148.2-89.4-232.2L402.2,832.4z"
				/>
		</g>
		<g id="_Group_3">
			<path id="_Path_13" class="st12" d="M497.2,655.4c21.2,36.3,67.7,48.6,104.1,27.5c36.3-21.2,48.6-67.7,27.5-104.1
				c-1.5-2.6-3.2-5.2-5.1-7.6l-81.3-9.2L497.2,655.4z"/>
			<g id="_Group_4">
				<path id="_Path_14" class="st13" d="M447.4,712.5l9.2,21.2l21.7-3.2c27.5,13.5,61,23.1,98.7,20.4c19.8-1.5,39.2-6.3,57.5-13.9
					c17.1-7.1,33.3-16.3,48.2-27.3c0,0,32.1-38.5,35.1-116.8c1-24.5-0.7-49.1-5.1-73.1l-78.3-12.4l-10.7,63.9
					c25.4,33.5,18.8,81.2-14.8,106.6c-6.3,4.8-13.5,8.6-21,11.2c-34.4,11.9-72.4-2.1-90.7-33.6l-44.5,7.4L447.4,712.5z"/>
			</g>
			<path id="_Path_15" class="st12" d="M307.2,655.4c-21.2,36.3-67.7,48.6-104.1,27.5c-36.3-21.2-48.6-67.7-27.5-104.1
				c1.5-2.6,3.2-5.2,5.1-7.6l81.3-9.2L307.2,655.4z"/>
			<g id="_Group_5">
				<path id="_Path_16" class="st14" d="M356.9,712.5l-9.2,21.2l-21.7-3.2c-27.5,13.5-61,23.1-98.7,20.4
					c-19.8-1.5-39.2-6.3-57.5-13.9c-17.1-7.1-33.3-16.3-48.2-27.3c0,0-32.1-38.5-35.1-116.8c-1-24.5,0.7-49.1,5.1-73.1l78.3-12.3
					l10.7,63.9c-25.4,33.5-18.8,81.2,14.8,106.6c6.3,4.8,13.5,8.6,21,11.2c34.4,11.9,72.4-2.1,90.7-33.6l44.5,7.4L356.9,712.5z"/>
			</g>
			<path id="_Path_17" class="st15" d="M425,693.1l22.4,43.7l30.7-6.3c89.8-110.6,225.8-125.2,330-200.8c-6.9-23-15.2-45.5-25-67.4
				L425,693.1z"/>
			<path id="_Path_18" class="st15" d="M326.2,730.5c0,0,24,80.6,76,128.7c52-48,76-128.7,76-128.7L326.2,730.5L326.2,730.5z"/>
			<g id="_Group_6">
				<path id="_Path_19" class="st14" d="M218.1,592.2l3.6-33.7l-28.8,19.5c-20.4,28.3-14,67.7,14.3,88.2l0.1,0.1
					C200.4,641,204.3,614.3,218.1,592.2z"/>
			</g>
			<path id="_Path_20" class="st16" d="M402.2,673.4l17.6,81.7l-17.6,77.3c-52-48-76-101.9-76-101.9c10.7-5.2,21-11.2,30.7-18
				L402.2,673.4z"/>
			<path id="_Path_21" class="st17" d="M402.2,673.4v158.9c52-48,76-101.9,76-101.9c-10.7-5.2-21-11.2-30.7-18L402.2,673.4z"/>
			<g id="_Group_7">
				<path id="_Path_22" class="st18" d="M586.2,592.2l-3.6-33.7l28.8,19.5c20.4,28.3,14,67.7-14.3,88.2l-0.1,0.1
					C604,641,600,614.3,586.2,592.2z"/>
			</g>
		</g>
		<g id="_Group_8">
			
				<linearGradient id="_Path_23_1_" gradientUnits="userSpaceOnUse" x1="33.0892" y1="-1106.3175" x2="33.0892" y2="-725.1069" gradientTransform="matrix(1 0 0 1 0 1274)">
				<stop  offset="0" style="stop-color:#18DDE4"/>
				<stop  offset="1" style="stop-color:#3297E4"/>
			</linearGradient>
			<path id="_Path_23" class="st19" d="M140.2,548.9c-16.4-9.3-32.9-18.9-48.6-29.3c-25.2-16.5-49.1-34.9-70.5-57.4
				c-56.2-58.8-95.2-145-95.2-294.5L87,380.2L140.2,548.9z"/>
			
				<linearGradient id="_Path_24_1_" gradientUnits="userSpaceOnUse" x1="14.3978" y1="-1106.3175" x2="14.3978" y2="-893.8063" gradientTransform="matrix(1 0 0 1 0 1274)">
				<stop  offset="0" style="stop-color:#109598"/>
				<stop  offset="1" style="stop-color:#1A7B98"/>
			</linearGradient>
			<path id="_Path_24" class="st20" d="M87,380.2C15.9,338-46.1,280.9-74.1,167.7c35.6,38.9,97.6,60.6,176.9,84.9L87,380.2z"/>
			
				<linearGradient id="_Path_25_1_" gradientUnits="userSpaceOnUse" x1="253.1401" y1="-1118.2231" x2="253.1401" y2="-834.0413" gradientTransform="matrix(1 0 0 1 0 1274)">
				<stop  offset="0" style="stop-color:#18FFFF"/>
				<stop  offset="1" style="stop-color:#30BEFF"/>
			</linearGradient>
			<path id="_Path_25" class="st21" d="M202.7,440l-62.5-13.5L87,380.2c-3.9-74.4,15.8-127.5,15.8-127.5
				c86.9-63.1,191.8-97,299.3-96.9l17.6,93.5L402.2,341L202.7,440z"/>
			
				<linearGradient id="_Path_26_1_" gradientUnits="userSpaceOnUse" x1="771.2233" y1="-1106.3175" x2="771.2233" y2="-725.1069" gradientTransform="matrix(1 0 0 1 0 1274)">
				<stop  offset="0" style="stop-color:#16C4CB"/>
				<stop  offset="1" style="stop-color:#2E85CB"/>
			</linearGradient>
			<path id="_Path_26" class="st22" d="M664.1,548.9c16.4-9.3,32.9-18.9,48.6-29.3c25.2-16.4,49.1-34.9,70.4-57.4
				c56.3-58.8,95.4-145,95.4-294.5L717.3,380.2L664.1,548.9z"/>
			
				<linearGradient id="_Path_27_1_" gradientUnits="userSpaceOnUse" x1="789.9148" y1="-1106.3175" x2="789.9148" y2="-893.8063" gradientTransform="matrix(1 0 0 1 0 1274)">
				<stop  offset="0" style="stop-color:#18FFFF"/>
				<stop  offset="1" style="stop-color:#2BCDFF"/>
			</linearGradient>
			<path id="_Path_27" class="st23" d="M717.3,380.2c71.1-42.1,133.1-99.3,161.1-212.5c-35.6,38.9-97.6,60.6-176.9,84.9L717.3,380.2
				z"/>
			
				<linearGradient id="_Path_28_1_" gradientUnits="userSpaceOnUse" x1="559.9825" y1="-1118.2241" x2="559.9825" y2="-834.0413" gradientTransform="matrix(1 0 0 1 0 1274)">
				<stop  offset="0" style="stop-color:#11B0B1"/>
				<stop  offset="1" style="stop-color:#2285B1"/>
			</linearGradient>
			<path id="_Path_28" class="st24" d="M601.5,440l58.5-11.4l57.4-48.5c3.9-74.3-15.8-127.4-15.8-127.4
				c-87-63.2-191.8-97.1-299.3-96.9V341L601.5,440z"/>
			
				<linearGradient id="_Path_29_1_" gradientUnits="userSpaceOnUse" x1="311.1991" y1="-933.0941" x2="311.1991" y2="-618.7918" gradientTransform="matrix(1 0 0 1 0 1274)">
				<stop  offset="0" style="stop-color:#22A5CB"/>
				<stop  offset="1" style="stop-color:#3476CB"/>
			</linearGradient>
			<path id="_Path_29" class="st25" d="M202.7,440c2.5-2.1,73.9-63.9,199.3-99.1l17.6,138.9l-17.5,175.4L202.7,440z"/>
			
				<linearGradient id="_Path_30_1_" gradientUnits="userSpaceOnUse" x1="501.8044" y1="-933.0941" x2="501.8044" y2="-618.9109" gradientTransform="matrix(1 0 0 1 0 1274)">
				<stop  offset="0" style="stop-color:#14697F"/>
				<stop  offset="1" style="stop-color:#20497F"/>
			</linearGradient>
			<path id="_Path_30" class="st26" d="M601.5,440c-2.5-2.1-73.9-63.9-199.3-99.1v314.2L601.5,440z"/>
			
				<linearGradient id="_Path_31_1_" gradientUnits="userSpaceOnUse" x1="247.5648" y1="-893.8063" x2="247.5648" y2="-561.5269" gradientTransform="matrix(1 0 0 1 0 1274)">
				<stop  offset="0" style="stop-color:#6CD8FF"/>
				<stop  offset="1" style="stop-color:#80A7FA"/>
			</linearGradient>
			<path id="_Path_31" class="st27" d="M402.2,673.4c-13.5,14.8-28.7,28-45.2,39c-14.3-21-31-40.1-49.8-57.1
				c-28.2-25.8-59.5-46.1-91.7-64.8c-11.4-6.5-23.1-13.1-34.8-19.4c-13.5-7.4-27-14.8-40.5-22.3C108.3,498.2,90,440.1,87,380.2
				c37.3,22,77,40.1,115.8,59.9c84.1,43,162.9,94.4,199.4,215.1l5.8,8.5L402.2,673.4z"/>
			
				<linearGradient id="_Path_32_1_" gradientUnits="userSpaceOnUse" x1="559.7241" y1="-893.6873" x2="559.7241" y2="-561.4079" gradientTransform="matrix(1 0 0 1 0 1274)">
				<stop  offset="0" style="stop-color:#1A7998"/>
				<stop  offset="1" style="stop-color:#2C4F94"/>
			</linearGradient>
			<path id="_Path_32" class="st28" d="M402.2,655.2v18.3c13.5,14.8,28.6,28,45.2,39c14.3-21,31-40.1,49.8-57.1
				c28.2-25.8,59.5-46.1,91.7-64.8c11.4-6.5,23.1-13.1,34.8-19.4c13.5-7.4,27-14.8,40.5-22.3c31.9-50.7,50.2-108.8,53.2-168.7
				c-37.3,22-77,40.1-115.8,59.9C517.5,483.1,438.8,534.5,402.2,655.2z"/>
		</g>
	</g>
</g>
</svg>
